<svg id="feature-icon-2" class="feature__icon feature__icon--2" xmlns="http://www.w3.org/2000/svg" viewBox="0 0 595.27 516.21">
  <path class="st0" d="M564.29,171.4L526.2,209.48L395.41,78.7C392.85,76.13 391.43,72.71 391.43,69.08C391.43,65.45 392.85,62.04 395.41,59.47L423.89,30.99C426.46,28.43 429.87,27.01 433.5,27.01C437.13,27.01 440.54,28.43 443.11,30.99L564.29,152.17C566.85,154.74 568.27,158.15 568.27,161.78C568.27,165.41 566.85,168.83 564.29,171.4M448.14,287.54L298.19,137.59C295.94,135.34 292.98,133.96 289.81,133.69L213.13,126.98C212.73,126.95 212.34,126.93 211.94,126.93C205.57,126.93 199.99,131.42 198.71,137.77L192.56,168.25C188.72,187.31 170.1,199.69 151.04,195.85C141.81,193.99 133.85,188.64 128.64,180.8C123.43,172.95 121.58,163.55 123.44,154.32L129.59,123.84C138.75,78.42 183.12,48.91 228.56,58.08C228.65,58.09 228.75,58.11 228.85,58.13L360.14,81.64L376.31,97.8L507.1,228.59ZM216.14,455.23C212.32,459.05 206.11,459.05 202.3,455.23L195.37,448.3C191.55,444.49 191.55,438.28 195.37,434.46L215.28,414.55L236.05,435.32ZM155.49,408.43C153.64,406.58 152.62,404.12 152.62,401.51C152.62,398.9 153.64,396.44 155.49,394.59L175.4,374.68L196.17,395.45L176.26,415.36C172.44,419.17 166.23,419.17 162.42,415.36ZM115.62,368.55C111.8,364.73 111.8,358.52 115.62,354.71L135.53,334.8L156.3,355.57L136.39,375.48C132.57,379.3 126.36,379.3 122.55,375.48ZM75.74,328.67C71.92,324.85 71.92,318.65 75.74,314.83L95.65,294.92L116.42,315.69L96.51,335.6C92.69,339.42 86.48,339.42 82.67,335.6ZM583.4,133.07L462.22,11.89C454.55,4.22 444.35,0 433.5,0C422.65,0 412.45,4.22 404.78,11.89L376.31,40.37C371.93,44.75 368.8,49.9 366.84,55.38L233.61,31.53C233.6,31.53 233.59,31.53 233.58,31.53C173.67,19.63 115.18,58.58 103.1,118.5L96.95,148.98C90.17,182.64 112.03,215.55 145.7,222.33C179.36,229.12 212.27,207.25 219.06,173.59L222.81,154.95L282.56,160.18L438.59,316.2L466.87,344.48C472.59,350.21 472.59,359.53 466.87,365.25C461.14,370.98 451.82,370.98 446.1,365.25L370.35,289.51C365.07,284.23 356.52,284.23 351.24,289.51C345.97,294.78 345.97,303.34 351.24,308.61L426.99,384.36C429.76,387.13 431.29,390.82 431.29,394.75C431.29,398.67 429.76,402.35 426.99,405.13C421.26,410.85 411.95,410.85 406.22,405.13L330.47,329.38C325.2,324.1 316.64,324.1 311.37,329.38C306.09,334.66 306.09,343.21 311.37,348.49L387.11,424.24C392.84,429.96 392.84,439.28 387.11,445C384.34,447.78 380.65,449.3 376.73,449.3C372.81,449.3 369.12,447.78 366.35,445L290.6,369.26C285.32,363.98 276.77,363.98 271.49,369.26C266.22,374.53 266.22,383.09 271.49,388.36L347.24,464.11C352.97,469.84 352.96,479.16 347.24,484.88C341.52,490.6 332.2,490.61 326.47,484.88L58.45,216.87L23.06,181.47C17.78,176.2 9.23,176.2 3.95,181.47C-1.31,186.75 -1.31,195.3 3.95,200.58L39.35,235.97L77.86,274.49L56.63,295.72C49.68,302.68 45.85,311.92 45.85,321.75C45.85,331.59 49.68,340.83 56.63,347.78L63.56,354.71C69.64,360.79 77.47,364.48 85.91,365.31C86.74,373.75 90.43,381.58 96.51,387.66L103.44,394.59C109.68,400.83 117.62,404.35 125.78,405.16C126.61,413.61 130.3,421.45 136.39,427.53L143.31,434.46C149.39,440.54 157.22,444.23 165.66,445.06C166.5,453.51 170.19,461.33 176.26,467.41L183.19,474.34C190.37,481.52 199.8,485.1 209.22,485.1C218.65,485.1 228.07,481.52 235.25,474.34L256.48,453.11L307.36,503.99C315.24,511.87 325.71,516.2 336.85,516.2C347.99,516.2 358.47,511.86 366.35,503.99C373.81,496.52 378.05,486.72 378.48,476.24C388.96,475.81 398.76,471.58 406.22,464.11C413.92,456.42 417.92,446.45 418.34,436.35C428.43,435.93 438.41,431.93 446.1,424.24C453.79,416.54 457.8,406.57 458.21,396.47C468.31,396.06 478.29,392.05 485.98,384.36C502.24,368.1 502.24,341.64 485.98,325.38L467.25,306.65L535.76,238.14L583.4,190.51C599.23,174.67 599.23,148.9 583.4,133.07"/>
  <path class="st0" d="M531.58,153.64C539.04,153.64 545.09,159.69 545.09,167.15C545.09,174.61 539.04,180.66 531.58,180.66C524.12,180.66 518.07,174.61 518.07,167.15C518.07,159.69 524.12,153.64 531.58,153.64"/>
</svg>
