<svg id="feature-icon-1" class="feature__icon feature__icon--1" xmlns="http://www.w3.org/2000/svg" viewBox="0 0 575.36 595.28">
  <path class="st0" d="M454.46,431.34C454.48,430.37 454.53,429.4 454.53,428.42C454.53,336.41 379.68,261.56 287.68,261.56C195.67,261.56 120.82,336.41 120.82,428.42C120.82,429.4 120.88,430.37 120.89,431.34L35.09,431.34L35.09,176.8L540.27,176.8L540.27,431.34ZM287.68,560.18C215.02,560.18 155.92,501.07 155.92,428.42C155.92,355.77 215.02,296.66 287.68,296.66C360.33,296.66 419.44,355.76 419.44,428.42C419.44,501.07 360.33,560.18 287.68,560.18M136.88,69.95L136.88,85.8C136.88,95.49 144.74,103.35 154.42,103.35C164.11,103.35 171.97,95.49 171.97,85.8L171.97,69.95L270.13,69.95L270.13,85.8C270.13,95.49 277.99,103.35 287.68,103.35C297.37,103.35 305.23,95.49 305.23,85.8L305.23,69.95L407.74,69.95L407.74,85.8C407.74,95.49 415.6,103.35 425.29,103.35C434.98,103.35 442.84,95.49 442.84,85.8L442.84,69.95L540.27,69.95L540.27,141.7L35.09,141.7L35.09,69.95ZM557.82,34.85L442.84,34.85L442.84,17.54C442.84,7.85 434.98,0 425.29,0C415.6,0 407.74,7.85 407.74,17.54L407.74,34.85L305.23,34.85L305.23,17.54C305.23,7.85 297.37,0 287.68,0C277.99,0 270.13,7.85 270.13,17.54L270.13,34.85L171.97,34.85L171.97,17.54C171.97,7.85 164.11,0 154.42,0C144.74,0 136.88,7.85 136.88,17.54L136.88,34.85L17.54,34.85C7.85,34.85 0,42.71 0,52.4L0,448.89C0,458.58 7.85,466.44 17.54,466.44L125.24,466.44C142.5,540.18 208.76,595.28 287.68,595.28C366.6,595.28 432.86,540.18 450.11,466.44L557.81,466.44C567.5,466.44 575.36,458.58 575.36,448.89L575.36,52.4C575.36,42.71 567.51,34.85 557.82,34.85"/>
  <path class="st0" d="M305.23,432.85L305.23,347.96C305.23,338.27 297.37,330.41 287.68,330.41C277.99,330.41 270.13,338.27 270.13,347.96L270.13,440.12C270.13,444.77 271.98,449.23 275.27,452.53L315.6,492.86C319.03,496.28 323.52,498 328.01,498C332.5,498 336.99,496.28 340.42,492.86C347.27,486.01 347.27,474.9 340.42,468.04Z"/>
</svg>
