<svg id="form-icon-phone" class="form__icon form__icon--phone" xmlns="http://www.w3.org/2000/svg" fill="#999999" width="18" height="18" viewBox="0 0 593.03 595.28">
  <path class="st0" d="M30.62,128.52C32.1,112.12 38.39,98.43 50.23,86.59L96.12,40.7C103.27,33.79 111.17,30.22 118.81,30.22C126.34,30.22 133.98,33.79 141.02,40.95C149.28,48.59 157.05,56.61 165.44,65.12C169.63,69.44 173.95,73.76 178.27,78.2L215.02,114.96C222.67,122.6 226.62,130.38 226.62,138.02C226.62,145.67 222.67,153.44 215.02,161.09C211.2,164.91 207.38,168.86 203.55,172.68C192.08,184.28 181.35,195.26 169.51,205.74C169.26,205.99 169.14,206.11 168.89,206.36C158.66,216.6 160.26,226.34 162.73,233.74C162.85,234.11 162.97,234.36 163.1,234.73C172.59,257.55 185.79,279.26 206.39,305.16C243.39,350.8 282.37,386.2 325.3,413.46C330.6,416.91 336.28,419.63 341.58,422.34C346.51,424.81 351.08,427.15 355.15,429.74C355.64,429.99 356.01,430.23 356.51,430.48C360.58,432.58 364.52,433.57 368.47,433.57C378.34,433.57 384.75,427.27 386.85,425.18L432.98,379.05C440.14,371.89 447.91,368.07 455.55,368.07C464.93,368.07 472.58,373.87 477.39,379.05L551.77,453.3C566.57,468.1 566.45,484.14 551.4,499.8C546.22,505.35 540.79,510.66 534.99,516.21C526.36,524.6 517.35,533.23 509.21,542.98C495.03,558.27 478.13,565.43 456.29,565.43C454.2,565.43 451.98,565.3 449.88,565.18C409.42,562.59 371.8,546.8 343.55,533.35C266.83,496.23 199.48,443.56 143.61,376.7C97.6,321.32 66.64,269.76 46.16,214.5C33.46,180.58 28.65,153.32 30.62,128.52M120.17,395.7C178.89,465.88 249.56,521.14 330.23,560.24C360.95,574.8 402.02,592.07 447.78,595.03C450.62,595.15 453.33,595.28 456.17,595.28C486.89,595.28 511.56,584.67 531.66,562.83C531.78,562.71 532.03,562.47 532.15,562.22C539.31,553.58 547.45,545.81 555.96,537.55C561.76,532 567.68,526.2 573.35,520.28C599.63,492.9 599.63,458.11 573.11,431.59L498.97,357.46C486.39,344.39 471.34,337.48 455.55,337.48C439.77,337.48 424.6,344.39 411.64,357.34L367.48,401.49C363.41,399.15 359.22,397.06 355.27,395.08C350.34,392.61 345.77,390.27 341.7,387.68C301.49,362.15 264.98,328.84 230.07,286.04C212.44,263.71 200.59,244.97 192.33,225.85C203.92,215.36 214.78,204.38 225.26,193.65C228.96,189.83 232.79,186 236.61,182.18C249.93,168.86 257.09,153.44 257.09,137.78C257.09,122.11 250.06,106.69 236.61,93.37L199.85,56.61C195.54,52.3 191.47,48.1 187.27,43.78C179.13,35.4 170.62,26.76 162.23,18.99C149.53,6.53 134.6,0 118.81,0C103.15,0 88.1,6.53 74.9,19.11L28.77,65.25C11.99,82.02 2.5,102.37 0.52,125.93C-1.81,155.41 3.61,186.75 17.67,224.61C39.25,283.2 71.82,337.6 120.17,395.7"/>
</svg>
