<svg id="feature-icon-3" class="feature__icon feature__icon--3" xmlns="http://www.w3.org/2000/svg" viewBox="0 0 562.88 595.28">
  <path class="st0" d="M429.69,295.45C429.22,286.2 425.36,277.21 418.28,270.13C405.51,257.35 386.51,255.01 371.02,264.3C367.89,266.18 365.14,265.15 363.77,264.36C362.41,263.58 360.14,261.71 360.2,258.05C360.5,239.99 348.98,224.71 331.53,220.04C330.25,219.7 328.98,219.44 327.71,219.23L413.23,36.74L526.14,89.66ZM149.65,36.74L235.17,219.23C233.9,219.44 232.63,219.7 231.35,220.04C213.91,224.72 202.38,239.99 202.68,258.06C202.74,261.72 200.47,263.58 199.11,264.36C197.75,265.15 195,266.18 191.86,264.31C176.36,255.01 157.37,257.36 144.6,270.13C137.52,277.21 133.66,286.2 133.19,295.45L36.74,89.66ZM437.9,365.05C438.44,367.06 438.71,370.79 434.47,373.14C422,380.07 414.56,392.71 414.56,406.97C414.56,421.22 422,433.87 434.46,440.79C438.71,443.15 438.44,446.88 437.9,448.89C437.37,450.88 435.77,454.19 431.05,454.19L430.87,454.19C416.68,453.94 403.86,461.19 396.73,473.53C389.6,485.88 389.72,500.55 397.05,512.78C399.55,516.94 397.45,520.04 395.97,521.51C394.5,522.98 391.41,525.08 387.25,522.58C375.02,515.25 360.35,515.13 348,522.26C335.65,529.39 328.42,542.15 328.66,556.41C328.74,561.26 325.37,562.89 323.36,563.43C321.35,563.97 317.62,564.24 315.26,560C308.34,547.54 295.69,540.09 281.44,540.09C267.18,540.09 254.54,547.54 247.61,560C245.26,564.24 241.53,563.98 239.51,563.43C237.5,562.89 234.13,561.26 234.21,556.41C234.45,542.15 227.22,529.39 214.87,522.26C202.52,515.13 187.86,515.25 175.63,522.58C171.47,525.08 168.37,522.98 166.9,521.51C165.42,520.03 163.33,516.94 165.82,512.78C173.15,500.55 173.28,485.88 166.15,473.53C159.02,461.19 146.25,453.94 132,454.19C127.09,454.18 125.51,450.91 124.97,448.89C124.43,446.88 124.16,443.15 128.41,440.79C140.87,433.87 148.31,421.22 148.31,406.97C148.31,392.71 140.87,380.07 128.41,373.14C124.16,370.79 124.43,367.06 124.97,365.05C125.51,363.03 127.11,359.75 132,359.74C146.2,359.98 159.02,352.75 166.15,340.41C173.28,328.06 173.15,313.39 165.82,301.16C163.32,297 165.42,293.9 166.9,292.43C168.37,290.95 171.47,288.86 175.63,291.35C187.86,298.69 202.53,298.8 214.87,291.68C227.22,284.55 234.45,271.78 234.21,257.53C234.13,252.67 237.5,251.04 239.51,250.51C241.52,249.96 245.25,249.7 247.61,253.94C254.54,266.4 267.18,273.84 281.44,273.84C295.69,273.84 308.34,266.4 315.26,253.94C317.62,249.7 321.35,249.96 323.36,250.51C325.37,251.04 328.74,252.67 328.66,257.53C328.42,271.78 335.65,284.55 348,291.68C360.35,298.81 375.01,298.69 387.24,291.35C391.4,288.85 394.5,290.95 395.97,292.43C397.44,293.9 399.54,297 397.05,301.16L397.05,301.16C389.72,313.39 389.6,328.06 396.73,340.4C403.85,352.75 416.56,359.93 430.87,359.74C435.71,359.78 437.36,363.03 437.9,365.05M553.8,67.79L412.34,1.49C408.55,-0.28 404.21,-0.48 400.28,0.94C396.35,2.36 393.14,5.29 391.36,9.07L282.07,242.28C281.84,242.29 281.63,242.3 281.44,242.3C281.25,242.3 281.04,242.29 280.81,242.28L171.52,9.07C169.75,5.29 166.54,2.36 162.6,0.94C158.67,-0.48 154.33,-0.28 150.55,1.49L9.08,67.79C1.19,71.49 -2.2,80.88 1.49,88.76L115.39,331.81C105.32,336.46 97.6,345.36 94.51,356.88C89.84,374.33 97.31,391.95 113.1,400.72C116.29,402.5 116.77,405.4 116.77,406.97C116.77,408.54 116.29,411.44 113.1,413.22C97.31,421.99 89.84,439.61 94.51,457.06C99.19,474.5 114.51,486.04 132.52,485.73C136.23,485.78 138.05,487.94 138.83,489.3C139.62,490.66 140.65,493.41 138.77,496.55C129.49,512.05 131.83,531.04 144.6,543.81C157.37,556.58 176.36,558.92 191.86,549.64C195,547.75 197.75,548.79 199.11,549.57C200.47,550.36 202.74,552.22 202.68,555.88C202.38,573.94 213.9,589.22 231.35,593.9C234.82,594.83 238.29,595.28 241.7,595.28C255.45,595.28 268.16,587.97 275.19,575.31C276.97,572.11 279.87,571.63 281.44,571.63C283.01,571.63 285.91,572.11 287.68,575.31C296.46,591.1 314.07,598.57 331.52,593.89C348.97,589.22 360.49,573.94 360.19,555.88C360.13,552.22 362.41,550.36 363.77,549.57C365.13,548.79 367.88,547.75 371.02,549.63C386.51,558.92 405.5,556.58 418.28,543.81C431.05,531.04 433.39,512.04 424.1,496.55C422.22,493.41 423.25,490.66 424.04,489.3C424.83,487.94 426.7,485.74 430.35,485.73C448.49,486 463.69,474.5 468.36,457.05C473.04,439.6 465.57,421.99 449.78,413.21C446.58,411.44 446.1,408.54 446.1,406.97C446.1,405.39 446.58,402.49 449.78,400.72C465.57,391.95 473.04,374.33 468.36,356.88C465.28,345.37 457.56,336.45 447.49,331.79L561.38,88.76C565.09,80.88 561.69,71.49 553.8,67.79"/>
</svg>
