<svg id="form-icon-name" class="form__icon form__icon--name" xmlns="http://www.w3.org/2000/svg" fill="#999999" width="16" height="16" viewBox="0 0 595.27 566.93">
  <path class="st0" d="M296.66,41.54C361.17,41.54 413.95,94.32 413.95,158.83C413.95,223.35 361.17,276.13 296.66,276.13C232.14,276.13 179.36,223.35 179.36,158.83C179.36,94.32 232.14,41.54 296.66,41.54M296.66,318.16C384.63,318.16 455.99,246.81 455.99,158.83C455.99,70.86 384.63,0 296.66,0C208.69,0 137.33,71.35 137.33,158.83C137.33,246.32 208.68,318.16 296.66,318.16"/>
  <path class="st0" d="M199.89,388.05L395.38,388.05C475.53,388.05 541.51,447.68 551.78,524.9L43.49,524.9C53.75,448.17 119.74,388.05 199.89,388.05M21.01,566.93L574.26,566.93C585.99,566.93 595.27,557.64 595.27,545.91C595.27,435.95 505.84,346.02 395.38,346.02L199.89,346.02C89.92,346.02 0,435.46 0,545.91C0,557.64 9.28,566.93 21.01,566.93"/>
</svg>
