<svg id="logo-icon" class="logo__icon" xmlns="http://www.w3.org/2000/svg" viewBox="0 0 100.68 101.09">
  <path class="st0" d="M48.32 0L40.36 0L40.36 53.54L48.32 53.54Z"/>
  <path class="st0" d="M48.32 45.58L0 45.58L0 53.54L48.32 53.54Z"/>
  <path class="st0" d="M0,41.89L0,51.61L54.81,13.23L50.24,6.71Z"/>
  <path class="st0" d="M100.23 45.58L53.61 45.58L53.61 53.54L100.23 53.54Z"/>
  <path class="st0" d="M45.42,13.23L100.23,51.61L100.23,41.89L49.98,6.71Z"/>
  <path class="st0" d="M100.68,71.48L89.25,71.48L89.25,100.48L81.08,100.48L81.08,71.48L69.7,71.48L69.7,64.75L100.68,64.75ZM53.56,101.09C49.92,101.09 46.63,100.3 43.69,98.72C40.74,97.14 38.43,94.94 36.74,92.13C35.06,89.33 34.22,86.15 34.22,82.61C34.22,79.07 35.06,75.9 36.74,73.09C38.43,70.28 40.74,68.09 43.69,66.51C46.63,64.92 49.94,64.13 53.61,64.13C56.71,64.13 59.51,64.68 62.01,65.77C64.51,66.86 66.62,68.42 68.32,70.46L63.01,75.36C60.59,72.57 57.6,71.18 54.02,71.18C51.81,71.18 49.84,71.66 48.1,72.63C46.37,73.6 45.01,74.96 44.04,76.69C43.07,78.43 42.59,80.4 42.59,82.61C42.59,84.83 43.07,86.8 44.04,88.53C45.01,90.27 46.37,91.62 48.1,92.59C49.84,93.56 51.81,94.05 54.02,94.05C57.6,94.05 60.59,92.64 63.01,89.81L68.32,94.71C66.62,96.79 64.5,98.37 61.99,99.46C59.47,100.55 56.66,101.09 53.56,101.09M14.26,86.08L8.54,86.08L8.54,100.48L0.32,100.48L0.32,64.75L8.54,64.75L8.54,79.19L14.46,79.19L23.85,64.75L32.58,64.75L20.89,82L32.94,100.48L23.55,100.48Z"/>
</svg>
